<svg width="60" height="60" viewBox="0 0 60 60" fill="none" xmlns="http://www.w3.org/2000/svg">
<rect width="60" height="60" rx="20" fill="#EF2A39"/>
<g clip-path="url(#clip0_1_57)">
<path d="M28.7 20.6253C28.4188 20.0275 27.9733 19.522 27.4155 19.1679C26.8577 18.8139 26.2107 18.6259 25.55 18.6259C24.8893 18.6259 24.2423 18.8139 23.6845 19.1679C23.1267 19.522 22.6812 20.0275 22.4 20.6253H19.5C19.1022 20.6253 18.7206 20.7834 18.4393 21.0647C18.158 21.346 18 21.7275 18 22.1253V22.1253C18 22.5232 18.158 22.9047 18.4393 23.186C18.7206 23.4673 19.1022 23.6253 19.5 23.6253H22.395C22.6762 24.2232 23.1217 24.7287 23.6795 25.0828C24.2373 25.4368 24.8843 25.6248 25.545 25.6248C26.2057 25.6248 26.8527 25.4368 27.4105 25.0828C27.9683 24.7287 28.4138 24.2232 28.695 23.6253H40.5C40.8978 23.6253 41.2794 23.4673 41.5607 23.186C41.842 22.9047 42 22.5232 42 22.1253C42 21.7275 41.842 21.346 41.5607 21.0647C41.2794 20.7834 40.8978 20.6253 40.5 20.6253H28.7Z" fill="white"/>
<path d="M34.455 26.4994C33.7944 26.5006 33.1477 26.6891 32.5899 27.0431C32.0321 27.3971 31.5863 27.9021 31.304 28.4994H19.5C19.1022 28.4994 18.7206 28.6574 18.4393 28.9387C18.158 29.22 18 29.6016 18 29.9994V29.9994C18 30.3972 18.158 30.7787 18.4393 31.0601C18.7206 31.3414 19.1022 31.4994 19.5 31.4994H31.3C31.5812 32.0972 32.0267 32.6027 32.5845 32.9568C33.1423 33.3109 33.7893 33.4989 34.45 33.4989C35.1107 33.4989 35.7577 33.3109 36.3155 32.9568C36.8733 32.6027 37.3188 32.0972 37.6 31.4994H40.5C40.8978 31.4994 41.2794 31.3414 41.5607 31.0601C41.842 30.7787 42 30.3972 42 29.9994C42 29.6016 41.842 29.22 41.5607 28.9387C41.2794 28.6574 40.8978 28.4994 40.5 28.4994H37.605C37.3228 27.9023 36.8771 27.3974 36.3195 27.0434C35.762 26.6894 35.1154 26.5008 34.455 26.4994Z" fill="white"/>
<path d="M25.545 34.3744C24.8846 34.3758 24.238 34.5644 23.6805 34.9184C23.1229 35.2724 22.6772 35.7773 22.395 36.3744H19.5C19.1022 36.3744 18.7206 36.5324 18.4393 36.8137C18.158 37.095 18 37.4766 18 37.8744V37.8744C18 38.2722 18.158 38.6537 18.4393 38.935C18.7206 39.2163 19.1022 39.3744 19.5 39.3744H22.395C22.6762 39.9722 23.1217 40.4777 23.6795 40.8318C24.2373 41.1859 24.8843 41.3739 25.545 41.3739C26.2057 41.3739 26.8527 41.1859 27.4105 40.8318C27.9683 40.4777 28.4138 39.9722 28.695 39.3744H40.5C40.8978 39.3744 41.2794 39.2163 41.5607 38.935C41.842 38.6537 42 38.2722 42 37.8744C42 37.4766 41.842 37.095 41.5607 36.8137C41.2794 36.5324 40.8978 36.3744 40.5 36.3744H28.7C28.4175 35.7765 27.9709 35.2711 27.4124 34.9171C26.8539 34.563 26.2063 34.3748 25.545 34.3744Z" fill="white"/>
</g>
<defs>
<clipPath id="clip0_1_57">
<rect width="24" height="24" fill="white" transform="translate(18 18)"/>
</clipPath>
</defs>
</svg>
